# xmcd
#
# Track frame offsets: 
#        150
#        7494
#        18162
#        38858
#        50149
#        63772
#        74257
#        79551
#        96981
#
# Disc length: 1658 seconds
#
# Revision: 2
# Processed by: cddbd v1.5.2PL0 Copyright (c) Steve Scherf et al.
# Submitted via: ExactAudioCopy v0.99pb4
#
DISCID=73067809
DTITLE=Pappo's Blues - Vol. 3 
DYEAR=1972
DGENRE=Rock Nacional;Blues;Electric Blues
TTITLE0=Stratocaster Boogie
TTITLE1=Pájaro metálico
TTITLE2=Sucio y desprolijo
TTITLE3=El sur de la ciudad
TTITLE4=Sandwiches de miga
TTITLE5=El brujo y el tiempo
TTITLE6=Trabajando en el ferrocarril
TTITLE7=Caras en el parque
TTITLE8=Siempre es lo mismo nena
EXTD=
EXTT0=
EXTT1=
EXTT2=
EXTT3=
EXTT4=
EXTT5=
EXTT6=
EXTT7=
EXTT8=
PLAYORDER=
